<svg width="623" height="401" viewBox="0 0 623 401" fill="none" xmlns="http://www.w3.org/2000/svg">
<g filter="url(#filter0_d_102_8)">
<path d="M453.141 86.8307V296.678C453.141 296.678 453.638 329 417.837 329C403.915 329 387.506 317.066 386.014 296.678V86.8307C386.014 72.4098 398.445 56 417.837 56C443.693 56 451.152 73.4044 453.141 86.8307ZM453.141 86.8307L474.024 86.8306C499.881 86.8306 506.841 111.694 506.841 122.137V258.388C506.841 258.388 508.831 295.683 474.024 298.667H453.048M506.841 234.022H521.758C549.106 234.022 545.605 204.186 545.605 204.186V180.814C545.605 170.371 544.631 151.475 518.775 151.475H506.841M211.486 162.913V86.8307C211.486 72.4098 199.055 56 179.663 56C153.807 56 146.348 73.4044 144.36 86.8307M211.486 162.913V221.59M211.486 162.913H210.989M211.486 162.913H386.014M211.486 221.59V296.678C209.994 317.066 193.586 329 179.663 329C149.269 329 145.037 305.703 144.452 298.667M211.486 221.59H210.989M211.486 221.59H355.559M144.36 86.8307L123.476 86.8306C97.6195 86.8306 90.6587 111.694 90.6587 122.137M144.36 86.8307V113.683M144.452 298.667C144.348 297.415 144.36 296.678 144.36 296.678V145.011M144.452 298.667H123.476C88.6695 295.683 90.6587 258.388 90.6587 258.388M90.6587 258.388V122.137M90.6587 258.388V234.022M90.6587 122.137V151.475M90.6587 234.022H75.7419C48.394 234.022 51.8957 204.186 51.8957 204.186V180.814C51.8957 170.371 52.869 151.475 78.7252 151.475H90.6587M90.6587 234.022V151.475" stroke="#44BF86" stroke-width="12" stroke-linecap="round" shape-rendering="crispEdges"/>
</g>
<defs>
<filter id="filter0_d_102_8" x="0.950123" y="0.200001" width="621.6" height="400.6" filterUnits="userSpaceOnUse" color-interpolation-filters="sRGB">
<feFlood flood-opacity="0" result="BackgroundImageFix"/>
<feColorMatrix in="SourceAlpha" type="matrix" values="0 0 0 0 0 0 0 0 0 0 0 0 0 0 0 0 0 0 127 0" result="hardAlpha"/>
<feOffset dx="13" dy="8"/>
<feGaussianBlur stdDeviation="28.9"/>
<feComposite in2="hardAlpha" operator="out"/>
<feColorMatrix type="matrix" values="0 0 0 0 0.266667 0 0 0 0 0.74902 0 0 0 0 0.52549 0 0 0 0.4 0"/>
<feBlend mode="normal" in2="BackgroundImageFix" result="effect1_dropShadow_102_8"/>
<feBlend mode="normal" in="SourceGraphic" in2="effect1_dropShadow_102_8" result="shape"/>
</filter>
</defs>
</svg>
