<svg width="507" height="285" viewBox="0 0 507 285" fill="none" xmlns="http://www.w3.org/2000/svg">
<path d="M408.141 36.8307V246.678C408.141 246.678 408.638 279 372.837 279C358.915 279 342.506 267.066 341.014 246.678V36.8307C341.014 22.4098 353.445 6 372.837 6C398.693 6 406.152 23.4044 408.141 36.8307ZM408.141 36.8307L429.024 36.8306C454.881 36.8306 461.841 61.6938 461.841 72.1366V208.388C461.841 208.388 463.831 245.683 429.024 248.667H408.048M461.841 184.022H476.758C504.106 184.022 500.605 154.186 500.605 154.186V130.814C500.605 120.371 499.631 101.475 473.775 101.475H461.841M166.486 112.913V36.8307C166.486 22.4098 154.055 6 134.663 6C108.807 6 101.348 23.4044 99.3597 36.8307M166.486 112.913V171.59M166.486 112.913H165.989M166.486 112.913H341.014M166.486 171.59V246.678C164.994 267.066 148.586 279 134.663 279C104.269 279 100.037 255.703 99.4524 248.667M166.486 171.59H165.989M166.486 171.59H310.559M99.3597 36.8307L78.4757 36.8306C52.6195 36.8306 45.6587 61.6938 45.6587 72.1366M99.3597 36.8307V63.683M99.4524 248.667C99.3483 247.415 99.3597 246.678 99.3597 246.678V95.0109M99.4524 248.667H78.4757C43.6695 245.683 45.6587 208.388 45.6587 208.388M45.6587 208.388V72.1366M45.6587 208.388V184.022M45.6587 72.1366V101.475M45.6587 184.022H30.7419C3.39404 184.022 6.89566 154.186 6.89566 154.186V130.814C6.89566 120.371 7.86901 101.475 33.7252 101.475H45.6587M45.6587 184.022V101.475" stroke="#44BF86" stroke-width="12" stroke-linecap="round"/>
</svg>
